<svg xmlns="http://www.w3.org/2000/svg" viewBox="0 0 800 600" width="800" height="600">
<defs><linearGradient id="g" x1="0" y1="0" x2="1" y2="1"><stop offset="0" stop-color="#0f172a"/><stop offset="1" stop-color="#14b8a6"/></linearGradient>
<pattern id="p" width="40" height="40" patternUnits="userSpaceOnUse"><circle cx="2" cy="2" r="1.5" fill="#fff" fill-opacity=".08"/></pattern></defs>
<rect width="800" height="600" fill="url(#g)"/><rect width="800" height="600" fill="url(#p)"/>
<circle cx="640" cy="120" r="180" fill="#fff" fill-opacity=".06"/><circle cx="140" cy="520" r="220" fill="#fff" fill-opacity=".05"/>
<g transform="translate(280 180) scale(10)" fill="none" stroke="#fff" stroke-opacity=".9" stroke-width="1.5" stroke-linecap="round" stroke-linejoin="round"><path d="M14.7 6.3a1 1 0 0 0 0 1.4l1.6 1.6a1 1 0 0 0 1.4 0l3.77-3.77a6 6 0 0 1-7.94 7.94l-6.91 6.91a2.12 2.12 0 0 1-3-3l6.91-6.91a6 6 0 0 1 7.94-7.94l-3.76 3.76z"/></g>
</svg>
