<svg xmlns="http://www.w3.org/2000/svg" viewBox="0 0 800 600" width="800" height="600">
<defs><linearGradient id="g" x1="0" y1="0" x2="1" y2="1"><stop offset="0" stop-color="#44403c"/><stop offset="1" stop-color="#b45309"/></linearGradient>
<pattern id="p" width="40" height="40" patternUnits="userSpaceOnUse"><circle cx="2" cy="2" r="1.5" fill="#fff" fill-opacity=".08"/></pattern></defs>
<rect width="800" height="600" fill="url(#g)"/><rect width="800" height="600" fill="url(#p)"/>
<circle cx="640" cy="120" r="180" fill="#fff" fill-opacity=".06"/><circle cx="140" cy="520" r="220" fill="#fff" fill-opacity=".05"/>
<g transform="translate(280 180) scale(10)" fill="none" stroke="#fff" stroke-opacity=".9" stroke-width="1.5" stroke-linecap="round" stroke-linejoin="round"><path d="m15 12-8.373 8.373a1 1 0 1 1-3-3L12 9"/><path d="m18 15 4-4"/><path d="m21.5 11.5-1.914-1.914A2 2 0 0 1 19 8.172V7l-2.26-2.26a6 6 0 0 0-4.202-1.756L9 2.96l.92.82A6.18 6.18 0 0 1 12 8.4V10l2 2h1.172a2 2 0 0 1 1.414.586L18.5 14.5"/></g>
</svg>
